<svg xmlns="http://www.w3.org/2000/svg" width="380" height="242" viewBox="0 0 380 242">
    <g fill="none" fill-rule="evenodd">
        <path fill="#F2F7FD" d="M0 0H380V242H0z"/>
        <g>
            <path fill="#00B1F2" d="M54.24 13.621c4.28 7.138 14.5 10.789 28.25 12.369 0 0-20.43-11.927-18.976-14.031 1.3-1.884 5.993-5.816 8.016-7.256 1.409-1.003.098-2.841-1.69-2.366l-5.964 1.584-6.32 4.414-3.316 5.286zM110.74 11.445c-3.521 7.52-13.425 11.951-27.12 14.545 0 0 19.28-13.533 17.579-15.554-1.523-1.81-6.694-5.443-8.897-6.752-1.534-.911-.415-2.863 1.44-2.512l6.195 1.169 6.869 4.002 3.934 5.102z" transform="translate(86 65)"/>
            <path fill="#1C9AD6" d="M82.49 25.99L72.234 8.586c-1.952-2.922-15.334 1.78-17.994 4.826C56.819 7.46 60.62 1.918 75.324.016c1.44-.139 2.784.615 3.149 1.764l4.017 24.21zM83.62 25.99l8.437-17.805c1.649-3.005 15.666.65 18.683 3.447C107.485 5.98 103.042.814 88 .001c-1.468-.034-2.742.8-2.983 1.954L83.62 25.99z" transform="translate(86 65)"/>
            <g>
                <path fill="#F3B20E" d="M158.372 27.257c-2.399-2.444-3.433-5.124-3.433-7.519 0-4.082 2.618-6.806 6.6-6.806 3.706 0 4.973 1.785 7.144 4.363 2.17-2.578 3.432-4.363 7.139-4.363 3.981 0 6.604 2.724 6.604 6.806 0 2.395-1.044 5.075-3.432 7.519l-10.311 10.662-10.311-10.662z" transform="translate(86 65) translate(0 24.358)"/>
                <path fill="#D5D5EA" d="M143.95 51.32l7.992-3.045c.198-.075.41-.113.623-.113h24.345c3.137 0 5.68 2.544 5.68 5.682 0 3.14-2.543 5.682-5.68 5.682h-31.443l-1.517-8.205z" transform="translate(86 65) translate(0 24.358)"/>
                <path fill="#BABADC" d="M145.467 58.884l34.233-.438 16.795-13.213c2.962-2.327 7.191-2.077 9.855.587 3.143 3.142 2.845 8.328-.643 11.085l-14.596 11.549c-4.025 3.185-9.001 4.94-14.136 4.98l-31.508.256" transform="translate(86 65) translate(0 24.358)"/>
                <path fill="#494D8D" d="M127 58.666L146.336 58.666 146.336 43.716 127 43.716z" transform="translate(86 65) translate(0 24.358)"/>
                <path fill="#02085F" d="M127 78.242L146.336 78.242 146.336 57.642 127 57.642z" transform="translate(86 65) translate(0 24.358)"/>
                <path fill="#F9CA55" d="M138.956 53.287c.975-.974.975-2.558 0-3.533-.975-.975-2.56-.975-3.534 0-.977.975-.977 2.559 0 3.533.975.978 2.56.978 3.534 0" transform="translate(86 65) translate(0 24.358)"/>
                <path fill="#BABADC" d="M37.747 78.236L127.296 78.236 127.296 14.236 37.747 14.236z" transform="translate(86 65) translate(0 24.358)"/>
                <path fill="#494D8D" d="M34.431 14.235L130.614 14.235 130.614 0.968 34.431 0.968z" transform="translate(86 65) translate(0 24.358)"/>
                <path fill="#00B1F2" d="M77.383.968c-4.89 0-9.168 3.287-10.428 8.012l-4.498 16.863-4.974-4.975-6.633 4.975L55.346 8.98C56.606 4.255 60.885.968 65.775.968h11.608zM85.88.968c4.889 0 9.168 3.287 10.427 8.012l4.498 16.863 4.975-4.975 6.633 4.975-4.497-16.863c-1.26-4.725-5.54-8.012-10.429-8.012H85.88z" transform="translate(86 65) translate(0 24.358)"/>
                <path fill="#02085F" d="M75.888 78.236L89.154 78.236 89.154 14.236 75.888 14.236z" transform="translate(86 65) translate(0 24.358)"/>
                <path fill="#F9CA55" d="M42.116 66.546c0 11.545-9.36 20.905-20.905 20.905C9.666 87.45.306 78.09.306 66.546c0-11.545 9.36-20.904 20.905-20.904 11.545 0 20.905 9.359 20.905 20.904" transform="translate(86 65) translate(0 24.358)"/>
                <path stroke="#F2F2FD" stroke-linecap="round" stroke-linejoin="round" stroke-width="3.295" d="M7.631 66.156L15.174 74.906 34.421 61.267" transform="translate(86 65) translate(0 24.358)"/>
            </g>
        </g>
    </g>
</svg>
