<svg xmlns="http://www.w3.org/2000/svg" width="380" height="242" viewBox="0 0 380 242">
    <g fill="none" fill-rule="evenodd">
        <path fill="#F2F7FD" d="M0 0H380V242H0z"/>
        <g>
            <path fill="#BABADC" d="M175.335 104.404c.195-2.06 2.029-3.576 4.096-3.379l.336-3.563c-2.063-.198-3.577-2.026-3.381-4.09.196-2.064 2.029-3.576 4.092-3.38l.341-3.563c-2.068-.198-3.578-2.025-3.382-4.089.198-2.068 2.027-3.58 4.089-3.382l.34-3.562c-2.064-.197-3.58-2.03-3.383-4.094.196-2.063 2.032-3.578 4.096-3.382l.383-4.03-94.07-8.95-.385 4.032c2.069.197 3.576 2.031 3.381 4.092-.197 2.067-2.024 3.578-4.09 3.381l-.339 3.564c2.064.196 3.58 2.029 3.385 4.09-.2 2.065-2.033 3.578-4.093 3.384l-.34 3.56c2.06.195 3.576 2.028 3.38 4.091-.196 2.064-2.03 3.58-4.093 3.383l-.34 3.56c2.065.197 3.582 2.027 3.385 4.093-.195 2.062-2.029 3.578-4.096 3.38l-.383 4.033 94.07 8.948.384-4.03c-2.065-.196-3.578-2.033-3.383-4.097" transform="translate(99 65)"/>
            <path fill="#F2F2FD" d="M166.612 104.928L97.213 98.325 100.612 62.546 170.016 69.151z" transform="translate(99 65)"/>
            <path fill="#F3B20E" d="M134.92 70.017L137.326 80.821 148.348 81.867 138.817 87.498 141.225 98.306 132.926 90.979 123.395 96.606 127.794 86.451 119.494 79.123 130.515 80.173z" transform="translate(99 65)"/>
            <path fill="#02085F" d="M175.46 53.693c-.538-2.003.648-4.059 2.65-4.595l-.927-3.458c-2.002.537-4.058-.648-4.596-2.651-.536-2.002.648-4.06 2.65-4.598l-.925-3.454c-2.003.537-4.059-.652-4.597-2.654-.537-2.003.648-4.058 2.651-4.595l-.928-3.458c-2.002.538-4.057-.648-4.595-2.654-.538-2.003.648-4.058 2.65-4.595l-1.05-3.913-91.261 24.484 1.05 3.915c2.002-.538 4.058.647 4.595 2.65.538 2.006-.648 4.061-2.65 4.599l.927 3.457c2.003-.538 4.059.648 4.595 2.65.537 2.003-.646 4.062-2.65 4.6l.927 3.453c2.002-.537 4.058.651 4.596 2.654.538 2.003-.648 4.058-2.65 4.596l.926 3.457c2.003-.538 4.058.648 4.596 2.65.537 2.003-.648 4.062-2.65 4.6l1.05 3.913 91.262-24.485-1.05-3.914c-2.003.537-4.06-.652-4.597-2.654" transform="translate(99 65)"/>
            <path fill="#494D8D" d="M100.134 75.293L167.466 57.228 158.153 22.517 90.822 40.582z" transform="translate(99 65)"/>
            <path fill="#F3B20E" d="M125.572 35.595L131.605 44.877 142.299 42.008 135.331 50.615 141.368 59.896 131.029 55.933 124.062 64.539 124.641 53.483 114.302 49.519 124.995 46.651z" transform="translate(99 65)"/>
            <path fill="#F9CA55" d="M82.201 37.65h-54.57c-1.31 0-2.477-.825-2.914-2.06-.467-1.32-.704-2.706-.704-4.12 0-4.505 2.478-8.578 6.292-10.73-.074-.54-.111-1.085-.111-1.63 0-6.817 5.545-12.363 12.361-12.363.546 0 1.09.037 1.632.11C46.339 3.045 50.41.568 54.916.568c4.506 0 8.577 2.477 10.73 6.29.54-.073 1.086-.11 1.632-.11 6.816 0 12.361 5.546 12.361 12.362 0 .546-.037 1.09-.11 1.63 3.813 2.153 6.29 6.226 6.29 10.73 0 1.415-.236 2.801-.704 4.121-.437 1.235-1.604 2.06-2.914 2.06" transform="translate(99 65)"/>
            <path fill="#BABADC" d="M85.807 34.838l-6.18 68.4c-.144 1.592-1.48 2.811-3.079 2.811H65.592l-1.48-38.526 4.849-36.054H82.73c.867 0 1.695.365 2.28 1.006.587.641.876 1.498.797 2.363" transform="translate(99 65)"/>
            <path fill="#F2F2FD" d="M68.961 31.47L65.592 106.05 54.916 106.05 54.916 31.47z" transform="translate(99 65)"/>
            <path fill="#BABADC" d="M44.24 106.05H33.284c-1.598 0-2.934-1.22-3.077-2.812l-6.181-68.4c-.079-.865.21-1.722.797-2.362.585-.641 1.413-1.006 2.28-1.006H40.87l4.728 36.054-1.358 38.526z" transform="translate(99 65)"/>
            <path fill="#F2F2FD" d="M54.916 31.47L54.916 106.05 44.24 106.05 40.87 31.47z" transform="translate(99 65)"/>
            <path fill="#00B1F2" d="M88.91 37.65H20.923c-1.707 0-3.09-1.383-3.09-3.09 0-1.707 1.383-3.09 3.09-3.09H88.91c1.707 0 3.09 1.383 3.09 3.09 0 1.707-1.383 3.09-3.09 3.09" transform="translate(99 65)"/>
            <path fill="#F3B20E" d="M7.804 91.459c.636-.158 1.161-.583 1.464-1.165.635-1.224 1.523-2.306 2.612-3.166 4.296-3.388 10.547-2.65 13.936 1.644.868 1.1 1.483 2.364 1.818 3.712.155.626.57 1.15 1.142 1.447 1.233.64 2.319 1.532 3.186 2.632 3.389 4.296 2.651 10.546-1.644 13.935-3.831 3.023-9.225 2.758-12.75-.39-.725-.649-1.757-.778-2.614-.314-2.625 1.419-5.707 1.545-8.386.484-1.565-.622-3-1.656-4.116-3.071C-.938 102.911-.2 96.66 4.095 93.271c1.095-.864 2.361-1.477 3.71-1.812" transform="translate(99 65)"/>
        </g>
    </g>
</svg>
