<svg xmlns="http://www.w3.org/2000/svg" xmlns:xlink="http://www.w3.org/1999/xlink" width="380" height="242" viewBox="0 0 380 242">
    <defs>
        <path id="prefix__a" d="M0 0H380V242H0z"/>
        <path id="prefix__c" d="M0 0H302V197H0z"/>
    </defs>
    <g fill="none" fill-rule="evenodd">
        <mask id="prefix__b" fill="#fff">
            <use xlink:href="#prefix__a"/>
        </mask>
        <use fill="#F2F7FD" xlink:href="#prefix__a"/>
        <g mask="url(#prefix__b)">
            <g transform="translate(41 23)">
                <use fill="#F2F7FD" xlink:href="#prefix__c"/>
            </g>
        </g>
        <g>
            <path fill="#BABADC" d="M125.987 81.136h.838c2.913 0 5.274-2.361 5.274-5.273V35.795c0-2.912-2.36-5.273-5.274-5.273h-.838c-2.912 0-5.272 2.36-5.272 5.273v40.068c0 2.912 2.36 5.273 5.272 5.273" transform="translate(109 66)"/>
            <path fill="#BABADC" d="M123.444 109.75l-12.462-12.46c-1.808-1.81-4.261-2.825-6.818-2.825-2.557 0-5.01-1.016-6.818-2.824L84.49 78.784h35.502l2.522-43.539c0-2.873.409-.687 3.275-.716 2.684-.028 2.636-2.665 2.967 0l.176 24.375 3.176 17.087c-.179 1.767.446 3.522 1.704 4.778l28.98 28.981h-39.348zM74.825 76.023c-3.807 0-6.904-3.096-6.904-6.903 0-2.51 1.346-4.708 3.352-5.917-2.006-1.21-3.352-3.409-3.352-5.918 0-2.508 1.346-4.708 3.352-5.916-2.006-1.21-3.352-3.41-3.352-5.917 0-2.51 1.346-4.71 3.352-5.918-2.006-1.209-3.352-3.408-3.352-5.917 0-3.806 3.097-6.904 6.904-6.904v49.31z" transform="translate(109 66)"/>
            <path fill="#02085F" d="M77.825 81.953c-1.824 0-3.303-1.492-3.303-3.331V65.756l46-.185v13.05c0 1.84-1.479 3.332-3.304 3.332H77.825zM74.522 12.825V4.016c0-1.84 1.48-3.331 3.303-3.331h39.393c1.825 0 3.304 1.491 3.304 3.331v8.652l-46 .157zM123.444 109.75L119.992 106.299 139.667 86.624 162.792 109.75z" transform="translate(109 66)"/>
            <path fill="#00B1F2" d="M162.792 109.75L127.389 109.75 145.09 92.048z" transform="translate(109 66)"/>
            <path fill="#FFB000" d="M97.403 68.894c-1.84 0-3.328 1.467-3.328 3.276 0 1.81 1.489 3.276 3.328 3.276 1.838 0 3.328-1.465 3.328-3.276 0-1.809-1.49-3.276-3.328-3.276" transform="translate(109 66)"/>
            <path fill="#F2F2FD" d="M74.513 65.515L120.513 65.515 120.513 13.104 74.513 13.104z" transform="translate(109 66)"/>
            <path stroke="#00B1F2" stroke-linecap="round" stroke-width="1.598" d="M103.217 6.985L90.763 6.985" transform="translate(109 66)"/>
            <path fill="#F9CA55" d="M16.907 13.092C20.42 6.72 26.921 3.028 33.715 2.802c3.452-.111 6.978.673 10.224 2.458 1.981 1.075 3.75 2.496 5.242 4.194l10.199 3.49c.193.07.375.194.504.366.365.46.281 1.145-.192 1.516l-5.78 4.492c.763 4.42.005 8.968-2.155 12.889-3.72 6.748-10.804 10.49-18.019 10.288-3.062-.083-6.153-.881-9.013-2.455-.03-.014-.05-.025-.064-.02-9.583-5.288-13.053-17.355-7.754-26.928" transform="translate(109 66)"/>
            <path fill="#F3B20E" d="M39.792 94.47c0 1.615-.197 3.223-.587 4.778-.09.36-.292.684-.575.923-5.129 4.355-11.666 6.752-18.407 6.752-6.74 0-13.276-2.397-18.405-6.752-.284-.24-.484-.563-.575-.923-.39-1.555-.588-3.163-.588-4.778 0-5.18 2.004-10.06 5.64-13.746 3.635-3.681 8.483-5.75 13.652-5.823h.554c5.169.073 10.017 2.142 13.651 5.823 3.637 3.686 5.64 8.566 5.64 13.746" transform="translate(109 66)"/>
            <path fill="#F9CA55" d="M20.224 57.11c5.895 0 10.674 4.78 10.674 10.675 0 5.895-4.779 10.673-10.674 10.673S9.55 73.68 9.55 67.785c0-5.896 4.779-10.674 10.674-10.674" transform="translate(109 66)"/>
            <path fill="#02085F" d="M66.165 98.637c0 1.5-.184 2.994-.546 4.44-.084.333-.27.633-.534.857-4.766 4.045-10.839 6.272-17.102 6.272-6.261 0-12.335-2.227-17.1-6.272-.263-.224-.45-.524-.534-.858-.363-1.445-.547-2.94-.547-4.44 0-4.81 1.862-9.347 5.241-12.771 3.377-3.42 7.881-5.342 12.683-5.409h.515c4.802.067 9.307 1.989 12.684 5.409 3.379 3.424 5.24 7.96 5.24 12.772" transform="translate(109 66)"/>
            <path fill="#494D8D" d="M47.983 63.926c5.478 0 9.918 4.44 9.918 9.918 0 5.477-4.44 9.917-9.918 9.917-5.477 0-9.917-4.44-9.917-9.917 0-5.478 4.44-9.918 9.917-9.918" transform="translate(109 66)"/>
        </g>
    </g>
</svg>
