<?xml version="1.0" encoding="UTF-8"?>
<svg width="341px" height="210px" viewBox="0 0 341 210" version="1.1" xmlns="http://www.w3.org/2000/svg" xmlns:xlink="http://www.w3.org/1999/xlink">
    <!-- Generator: Sketch 57.1 (83088) - https://sketch.com -->
    <title>Group 6</title>
    <desc>Created with Sketch.</desc>
    <defs>
        <linearGradient x1="-14.2789384%" y1="75.5901553%" x2="116.277715%" y2="23.6141725%" id="linearGradient-1">
            <stop stop-color="#4CC8F2" offset="0%"></stop>
            <stop stop-color="#A8DDE2" offset="100%"></stop>
        </linearGradient>
        <path d="M78.7128287,0.0543090997 L1.16898406,77.8222244 C-0.317505363,79.3130091 -0.317505363,81.7324795 1.16898406,83.2246221 L36.4236937,118.581204 C37.9115369,120.071988 40.3226823,120.071988 41.8118794,118.581204 L92.747834,67.4967068 L92.747834,14.0893145 C92.747834,6.33799504 86.4641481,0.0543090997 78.7128287,0.0543090997 L78.7128287,0.0543090997 L78.7128287,0.0543090997 Z" id="path-2"></path>
        <linearGradient x1="-37.3268351%" y1="295.346869%" x2="191.379835%" y2="-10.9317257%" id="linearGradient-4">
            <stop stop-color="#A8DDE2" offset="0%"></stop>
            <stop stop-color="#4CC8F2" offset="100%"></stop>
        </linearGradient>
        <path d="M209.100946,0.0543984494 L0.670687058,208.837007 L144.989237,208.837007 L277.193332,76.4107819 L277.193332,14.0912406 C277.193332,6.33890672 270.908824,0.0543984494 263.15649,0.0543984494 L209.100946,0.0543984494 L209.100946,0.0543984494 Z" id="path-5"></path>
        <linearGradient x1="154.374449%" y1="-15.5002955%" x2="-11.5414242%" y2="113.989389%" id="linearGradient-7">
            <stop stop-color="#A8DDE2" offset="0%"></stop>
            <stop stop-color="#4CC8F2" offset="100%"></stop>
        </linearGradient>
        <path d="M2.1879342,88.8947358 C0.110487949,90.9700781 0.110487949,94.3380777 2.1879342,96.4161471 L48.3650767,142.575468 L90.2577421,142.575468 L90.2577421,0.856317306 L2.1879342,88.8947358 Z" id="path-8"></path>
        <linearGradient x1="-75.641508%" y1="159.192925%" x2="50%" y2="-30.4515903%" id="linearGradient-10">
            <stop stop-color="#4CC8F2" offset="0%"></stop>
            <stop stop-color="#A8DDE2" offset="100%"></stop>
        </linearGradient>
        <path d="M0.321109486,106.198501 L127.69898,106.198501 C135.451314,106.198501 141.735822,99.9139924 141.735822,92.1616586 L141.735822,29.8692139 L141.735822,29.8692139 L113.91359,1.99364001 C112.589694,0.667205476 110.854886,0.00330658715 109.120079,0.00330658715 C107.385271,0.00330658715 105.650463,0.667205476 104.326567,1.99364001 L0.321109486,106.198501 Z" id="path-11"></path>
        <linearGradient x1="-109.693546%" y1="110.504279%" x2="165.594148%" y2="-77.6658229%" id="linearGradient-13">
            <stop stop-color="#A8DDE2" offset="0%"></stop>
            <stop stop-color="#4CC8F2" offset="100%"></stop>
        </linearGradient>
        <path d="M0.702942624,105.633926 L126.237602,105.633926 C133.989936,105.633926 140.274444,99.3494179 140.274444,91.5970841 L140.274444,31.1218376 L140.274444,31.1218376 L111.486428,2.28534609 C110.435414,1.23392346 109.059441,0.708212138 107.682108,0.708212138 C106.304776,0.708212138 104.927443,1.23392346 103.877788,2.28534609 L0.702942624,105.633926 Z" id="path-14"></path>
        <linearGradient x1="-36.464668%" y1="54.8661101%" x2="143.862061%" y2="98.7556518%" id="linearGradient-16">
            <stop stop-color="#A8DDE2" offset="0%"></stop>
            <stop stop-color="#4CC8F2" offset="100%"></stop>
        </linearGradient>
        <path d="M80.0138843,0.0543560335 L1.58845912,78.6871529 C0.363231265,79.9155993 0.363231265,81.9077479 1.58845912,83.1348354 L1.58845912,83.1348354 L37.8383973,119.479997 C39.0636251,120.709802 41.0505544,120.709802 42.2744269,119.479997 L42.2744269,119.479997 L93.74755,67.8716612 L93.74755,0.0543560335 L80.0138843,0.0543560335 Z" id="path-17"></path>
        <linearGradient x1="7.90378885%" y1="5.44458861%" x2="143.61072%" y2="50.2276319%" id="linearGradient-19">
            <stop stop-color="#4CC8F2" offset="0%"></stop>
            <stop stop-color="#A8DDE2" offset="100%"></stop>
        </linearGradient>
    </defs>
    <g id="Digital-Onboarding" stroke="none" stroke-width="1" fill="none" fill-rule="evenodd">
        <g id="Welcome-Aboard_Full-page-Copy-7" transform="translate(-969.000000, -354.000000)">
            <g id="Group-6-Copy" transform="translate(969.000000, 354.000000)">
                <g id="Group-6">
                    <g id="Group-30">
                        <path d="M14.0368421,209 L325.963158,209 C333.715492,209 340,202.715492 340,194.963158 L340,14.0368421 C340,6.28450827 333.715492,3.52276218e-16 325.963158,0 L14.0368421,0 C6.28450827,1.42408062e-15 2.6033266e-15,6.28450827 0,14.0368421 L0,194.963158 C1.81630261e-14,202.715492 6.28450827,209 14.0368421,209 Z" id="Fill-1" fill="url(#linearGradient-1)"></path>
                        <g id="Group-5" transform="translate(247.000000, 1.000000)">
                            <mask id="mask-3" fill="white">
                                <use xlink:href="#path-2"></use>
                            </mask>
                            <g id="Clip-4"></g>
                            <path d="M78.7128287,0.0543090997 L1.16898406,77.8222244 C-0.317505363,79.3130091 -0.317505363,81.7324795 1.16898406,83.2246221 L36.4236937,118.581204 C37.9115369,120.071988 40.3226823,120.071988 41.8118794,118.581204 L92.747834,67.4967068 L92.747834,14.0893145 C92.747834,6.33799504 86.4641481,0.0543090997 78.7128287,0.0543090997 L78.7128287,0.0543090997 L78.7128287,0.0543090997 Z" id="Fill-3" fill="url(#linearGradient-4)" mask="url(#mask-3)"></path>
                        </g>
                        <g id="Group-14" transform="translate(62.000000, 0.000000)">
                            <mask id="mask-6" fill="white">
                                <use xlink:href="#path-5"></use>
                            </mask>
                            <g id="Clip-13"></g>
                            <path d="M209.100946,0.0543984494 L0.670687058,208.837007 L144.989237,208.837007 L277.193332,76.4107819 L277.193332,14.0912406 C277.193332,6.33890672 270.908824,0.0543984494 263.15649,0.0543984494 L209.100946,0.0543984494 L209.100946,0.0543984494 Z" id="Fill-12" fill="url(#linearGradient-7)" mask="url(#mask-6)"></path>
                        </g>
                        <g id="Group-17" transform="translate(250.000000, 67.000000)">
                            <mask id="mask-9" fill="white">
                                <use xlink:href="#path-8"></use>
                            </mask>
                            <g id="Clip-16"></g>
                            <path d="M2.1879342,88.8947358 C0.110487949,90.9700781 0.110487949,94.3380777 2.1879342,96.4161471 L48.3650767,142.575468 L76.2209,142.575468 C83.9732338,142.575468 90.2577421,136.29096 90.2577421,128.538626 L90.2577421,0.856317306 L90.2577421,0.856317306 L2.1879342,88.8947358 Z" id="Fill-15" fill="url(#linearGradient-10)" mask="url(#mask-9)"></path>
                        </g>
                        <g id="Group-20" transform="translate(198.000000, 103.000000)">
                            <mask id="mask-12" fill="white">
                                <use xlink:href="#path-11"></use>
                            </mask>
                            <g id="Clip-19"></g>
                            <path d="M0.321109486,106.198501 L127.69898,106.198501 C135.451314,106.198501 141.735822,99.9139924 141.735822,92.1616586 L141.735822,29.8692139 L141.735822,29.8692139 L113.91359,1.99364001 C112.589694,0.667205476 110.854886,0.00330658715 109.120079,0.00330658715 C107.385271,0.00330658715 105.650463,0.667205476 104.326567,1.99364001 L0.321109486,106.198501 Z" id="Fill-18" fill="url(#linearGradient-13)" mask="url(#mask-12)"></path>
                        </g>
                        <g id="Group-26" transform="translate(200.000000, 104.000000)">
                            <mask id="mask-15" fill="white">
                                <use xlink:href="#path-14"></use>
                            </mask>
                            <g id="Clip-25"></g>
                            <path d="M0.702942624,105.633926 L126.237602,105.633926 C133.989936,105.633926 140.274444,99.3494179 140.274444,91.5970841 L140.274444,31.1218376 L140.274444,31.1218376 L111.486428,2.28534609 C110.435414,1.23392346 109.059441,0.708212138 107.682108,0.708212138 C106.304776,0.708212138 104.927443,1.23392346 103.877788,2.28534609 L0.702942624,105.633926 Z" id="Fill-24" fill="url(#linearGradient-16)" mask="url(#mask-15)"></path>
                        </g>
                        <g id="Group-29" transform="translate(246.000000, 0.000000)">
                            <mask id="mask-18" fill="white">
                                <use xlink:href="#path-17"></use>
                            </mask>
                            <g id="Clip-28"></g>
                            <path d="M80.0138843,0.0543560335 L1.58845912,78.6871529 C0.363231265,79.9155993 0.363231265,81.9077479 1.58845912,83.1348354 L37.8383973,119.479997 C39.0636251,120.709802 41.0505544,120.709802 42.2744269,119.479997 L93.74755,67.8716612 L93.74755,13.7880218 C93.74755,6.20312762 87.5987784,0.0543560335 80.0138843,0.0543560335 L80.0138843,0.0543560335 L80.0138843,0.0543560335 Z" id="Fill-27" fill="url(#linearGradient-19)" mask="url(#mask-18)"></path>
                        </g>
                    </g>
                    <g id="sbi-card-logo-vector" transform="translate(143.000000, 20.000000)" fill="#B7EDF6" fill-rule="nonzero">
                        <path d="M134.796839,14.0730435 C134.737937,11.56 133.972213,9.72695652 132.499667,8.60347826 C131.086023,7.53913043 128.847754,7.03652174 125.725957,7.03652174 C121.102163,7.06608696 116.743428,8.6626087 116.743428,8.6626087 L116.124958,13.6 L117.12629,13.1565217 C118.510483,12.5652174 119.894676,12.0921739 121.249418,11.7669565 C122.545258,11.4417391 123.811647,11.293913 125.019135,11.293913 C126.697837,11.293913 127.846423,11.5008696 128.582696,11.973913 C129.230616,12.3582609 129.554576,12.9791304 129.584027,13.866087 C129.613478,14.5756522 129.348419,15.1669565 128.788852,15.64 C128.376539,16.0243478 127.375208,16.6452174 124.960233,17.5321739 L119.511814,19.5130435 C117.420799,20.2817391 115.918802,21.2573913 115.005824,22.3808696 C114.063394,23.5634783 113.621631,25.0713043 113.680532,26.8747826 C113.739434,28.973913 114.593511,30.6886957 116.18386,31.9304348 C116.802329,32.4034783 117.568053,32.8173913 118.274875,33.1130435 C119.335108,33.5269565 120.572047,33.733913 121.691181,33.8226087 C124.489018,34.0591304 127.11015,33.2313043 129.171714,31.5756522 L128.995008,33.2904348 L134.649584,33.2904348 L134.649584,28.3826087 L134.767388,16.053913 C134.82629,15.8765217 134.796839,14.0730435 134.796839,14.0730435 M124.606822,29.3286957 C124.076705,29.3878261 123.57604,29.4173913 123.045923,29.4173913 C121.750083,29.4173913 120.778203,29.1808696 120.130283,28.6782609 C119.511814,28.2052174 119.187854,27.5547826 119.158403,26.6678261 C119.128952,25.84 119.335108,25.16 119.806323,24.6278261 C120.248087,24.066087 121.161065,23.533913 122.486356,23.0313043 L127.699168,21.0504348 C128.464892,20.7252174 128.995008,20.4886957 129.436772,20.2226087 C129.495674,20.1930435 129.554576,20.1634783 129.584027,20.133913 L129.37787,27.7026087 C129.37787,27.8208696 128.464892,28.2347826 128.317637,28.293913 C128.023128,28.4713043 126.049917,29.1513043 124.606822,29.3286957" id="Shape"></path>
                        <path d="M110.470383,27.3773913 L110.440932,27.2591304 L109.73411,27.613913 C108.497171,28.2052174 107.260233,28.6782609 106.023295,29.0034783 C104.108985,29.506087 102.01797,29.7130435 100.103661,29.1513043 C99.4557404,28.9443478 98.8372712,28.6486957 98.3071547,28.2643478 C97.7770383,27.9095652 97.3352745,27.466087 96.9524126,26.9634783 C95.4209651,24.9234783 95.097005,22.026087 95.2442596,19.5130435 C95.3620632,17.5617391 95.774376,15.4921739 96.9524126,13.8956522 C97.3058236,13.4226087 97.7770383,12.9791304 98.3071547,12.5947826 C98.8667221,12.2104348 99.4557404,11.9147826 100.103661,11.7078261 C102.813145,10.9095652 105.640433,11.56 108.202662,12.4469565 C109.056739,12.7426087 110.028619,13.1269565 111.118303,13.6 L112.031281,8.54434783 C109.675208,7.77565217 107.260233,7.33217391 104.815807,7.09565217 C102.66589,6.88869565 100.486522,7.00695652 98.4249584,7.6573913 C96.4517471,8.27826087 94.8024958,9.3426087 93.5361065,10.7913043 C91.0916805,13.5704348 90.3848586,17.7095652 90.591015,21.346087 C90.7382696,24.2434783 91.5923461,27.5547826 93.3888519,29.8313043 C95.1853577,32.1078261 97.865391,33.2904348 100.633777,33.586087 C103.431614,33.9113043 106.170549,33.586087 108.909484,32.8765217 C109.969717,32.6104348 111.000499,32.2556522 112.031281,31.8713043 L112.149085,31.8417391 L112.090183,31.7530435 C111.177205,30.333913 110.647088,28.8556522 110.470383,27.3773913" id="Path"></path>
                        <path d="M156.354908,8.04173913 C155.11797,7.71652174 153.851581,7.45043478 152.585191,7.3026087 C151.171547,7.12521739 149.699002,7.03652174 148.04975,7.06608696 C144.81015,7.12521739 142.512978,7.68695652 141.040433,8.75130435 C139.538436,9.87478261 138.743261,11.7078261 138.654908,14.1913043 L138.625458,16.1721739 L138.625458,28.4713043 L138.625458,33.2904348 L144.338935,33.2904348 L144.250582,32.4034783 C144.16223,31.6347826 144.044426,29.506087 144.044426,29.506087 C144.014975,29.1217391 144.014975,28.7373913 144.014975,28.293913 L143.661564,17.68 C143.632113,16.586087 143.632113,15.4330435 143.749917,14.4278261 C143.83827,13.8956522 144.132779,13.0678261 144.898502,12.3878261 C147.814143,9.93391304 152.909151,12.2991304 152.909151,12.2991304 C152.968053,12.0626087 153.085857,11.7965217 153.203661,11.56 C153.615973,10.8504348 154.116639,10.2 154.676206,9.57913043 C155.147421,9.0173913 155.736439,8.51478261 156.354908,8.04173913" id="Path"></path>
                        <path d="M172.228952,0.147826087 C172.258403,0.620869565 172.376206,3.28173913 172.376206,7.62782609 C171.257072,7.42086957 170.314642,7.27304348 169.166057,7.15478261 C166.957238,6.94782609 164.689517,7.06608696 162.569052,7.71652174 C160.536938,8.3373913 158.828785,9.40173913 157.532945,10.8504348 C155.029617,13.6295652 154.293344,17.7686957 154.499501,21.4052174 C154.676206,24.3026087 155.530283,27.613913 157.385691,29.8904348 C159.241098,32.1669565 162.009484,33.3495652 164.866223,33.6452174 C165.013478,33.6452174 165.838103,33.733913 166.103161,33.733913 C166.809983,33.7930435 167.516805,33.7930435 168.223627,33.7930435 C169.166057,33.7634783 170.137937,33.6747826 171.080366,33.5269565 C171.433777,33.4678261 171.787188,33.4086957 172.140599,33.32 C172.464559,33.2313043 172.788519,33.1426087 173.112479,33.0243478 C173.230283,32.9947826 173.878203,32.7286957 174.025458,32.64 C174.850083,32.2556522 175.645258,31.693913 176.175374,30.9843478 C176.322629,30.8069565 176.440433,30.6 176.528785,30.3930435 C176.734942,29.9495652 176.882196,29.4469565 176.882196,28.8852174 L176.882196,0.147826087 L172.228952,0.147826087 L172.228952,0.147826087 Z M164.336106,29.1217391 C163.658735,28.9147826 163.040266,28.6191304 162.480699,28.2347826 C161.950582,27.88 161.479368,27.4365217 161.096506,26.933913 C159.506156,24.893913 159.182196,21.9965217 159.329451,19.4834783 C159.447255,17.5321739 159.859567,15.4626087 161.096506,13.866087 C161.479368,13.3930435 161.950582,12.9495652 162.480699,12.5652174 C163.040266,12.1808696 163.688186,11.8852174 164.336106,11.6782609 C167.01614,10.9095652 169.637271,11.6782609 172.228952,12.506087 C172.228952,12.506087 172.258403,27.0521739 172.258403,27.1408696 C172.258403,27.9982609 171.257072,28.5304348 170.609151,28.7965217 C169.696173,29.2104348 167.958569,29.3286957 167.958569,29.3286957 C166.721631,29.5356522 165.514143,29.4469565 164.336106,29.1217391 L164.336106,29.1217391 Z" id="Shape"></path>
                        <path d="M48.5351082,19.8678261 C47.0331115,18.626087 45.118802,17.8278261 43.4106489,17.1182609 C41.0545757,16.1426087 39.0224626,15.3147826 39.0224626,13.7478261 C39.0224626,13.0678261 39.3464226,12.4469565 39.90599,11.973913 C40.5244592,11.5008696 41.3785358,11.2347826 42.2915141,11.2347826 C45.2366057,11.2347826 47.563228,13.333913 47.5926789,13.333913 L48.1522463,13.866087 L50.7439268,8.95826087 L50.4494176,8.63304348 C50.331614,8.51478261 47.5926789,5.67652174 42.2915141,5.67652174 C39.7587354,5.67652174 37.4026622,6.50434783 35.7239601,7.9826087 C33.9863561,9.49043478 33.0439268,11.56 33.0439268,13.8069565 C33.0439268,16.0243478 33.8980033,17.7982609 35.6356073,19.2469565 C37.1081531,20.4886957 38.9341098,21.2573913 40.7011647,22.026087 C43.1161398,23.0608696 45.2071547,23.9773913 45.2071547,25.573913 C45.2071547,26.786087 44.3825291,28.1165217 42.0559068,28.1165217 C38.7279534,28.1165217 36.077371,25.573913 36.0479201,25.5443478 L35.5472546,25.0417391 L32.3076539,29.5356522 L32.631614,29.8904348 C32.6610649,29.92 33.5151414,30.866087 35.0760399,31.7826087 C36.5191348,32.64 38.875208,33.6452174 41.997005,33.6452174 C44.7064892,33.6452174 47.0331115,32.8173913 48.6823627,31.2208696 C50.2432612,29.7426087 51.0973378,27.6730435 51.0973378,25.426087 C51.1562396,23.2086957 50.3021631,21.346087 48.5351082,19.8678261" id="Path"></path>
                        <rect id="Rectangle" x="75.8950083" y="6.09043478" width="6.06688852" height="27.2"></rect>
                        <path d="M72.0958403,21.08 C71.506822,20.133913 70.6821963,19.3652174 69.6808652,18.8626087 C71.2712146,17.5913043 72.1547421,15.64 72.1547421,13.3930435 C72.1547421,11.146087 71.3006656,9.25391304 69.6808652,7.95304348 C68.1494176,6.71130435 66.0289517,6.06086957 63.5550749,6.06086957 L53.6890183,6.06086957 L53.6890183,33.2608696 L63.6728785,33.2608696 C66.3234609,33.2608696 68.6206323,32.5808696 70.2993344,31.3095652 C72.2136439,29.8608696 73.214975,27.7026087 73.214975,25.1008696 C73.214975,23.6521739 72.8321131,22.2330435 72.0958403,21.08 M64.0262895,28.2052174 L59.4024958,28.2052174 L59.4024958,11.1756522 L63.4667221,11.1756522 C65.2926789,11.1756522 66.3529118,12.2104348 66.3529118,13.9843478 C66.3529118,15.7878261 65.4104825,16.7043478 63.5550749,16.7043478 L62.1414309,16.7043478 L62.1414309,21.7008696 L64.0262895,21.7008696 C65.0570715,21.7008696 65.9111481,22.026087 66.5001664,22.6469565 C67.1186356,23.2973913 67.3836938,23.9182609 67.3836938,24.8347826 C67.3836938,26.9043478 66.0878536,28.2052174 64.0262895,28.2052174" id="Shape"></path>
                        <path d="M14.224792,5.6173913 C6.47920133,5.6173913 0.206156406,11.9147826 0.206156406,19.72 C0.206156406,27.0226087 5.71347754,33.0243478 12.7816972,33.733913 L12.7816972,23.5043478 C11.2502496,22.9130435 10.1900166,21.4347826 10.1900166,19.72 C10.1900166,17.4730435 11.9865225,15.6695652 14.224792,15.6695652 C16.4336106,15.6695652 18.2595674,17.4730435 18.2595674,19.72 C18.2595674,21.4347826 17.1698835,22.9130435 15.6678869,23.5043478 L15.6678869,33.733913 C22.7361065,33.0243478 28.2434276,27.0226087 28.2434276,19.72 C28.2139767,11.9147826 21.9409318,5.6173913 14.224792,5.6173913" id="Path"></path>
                    </g>
                </g>
            </g>
        </g>
    </g>
</svg>